<?xml version="1.0" encoding="iso-8859-1"?>
<!-- Generator: Adobe Illustrator 19.0.0, SVG Export Plug-In . SVG Version: 6.00 Build 0)  -->
<svg version="1.1" id="Capa_1" xmlns="http://www.w3.org/2000/svg" xmlns:xlink="http://www.w3.org/1999/xlink" x="0px" y="0px"
	 viewBox="0 0 512 512" style="enable-background:new 0 0 512 512;" xml:space="preserve">
<g>
	<g>
		<polygon points="30,438.798 30,43.202 0,43.202 0,468.798 512,468.798 512,438.798 		"/>
	</g>
</g>
<g>
	<g>
		<path d="M488.046,85.959h-83.252v30h30.617l-43.559,51.463c-4.339-1.328-8.941-2.047-13.71-2.047
			c-25.885,0-46.943,21.059-46.943,46.943c0,9.115,2.62,17.624,7.133,24.833l-41.506,54.072c-5.524-2.29-11.573-3.561-17.915-3.561
			c-11.438,0-21.929,4.116-30.081,10.939l-48.347-37.618c-1.016-24.993-21.656-45.014-46.893-45.014
			c-25.885,0-46.943,21.059-46.943,46.943c0,10.15,3.249,19.55,8.746,27.238L49.274,393.56l25.277,16.16l65.188-101.953
			c4.381,1.356,9.033,2.088,13.853,2.088c15.146,0,28.631-7.217,37.221-18.386l42.293,32.908c-0.735,3.295-1.136,6.715-1.136,10.228
			c0,25.884,21.059,46.943,46.943,46.943c25.885,0,46.943-21.059,46.943-46.943c0-8.602-2.336-16.664-6.392-23.604l42.058-54.791
			c5.171,1.964,10.771,3.05,16.622,3.05c25.885,0,46.943-21.059,46.943-46.943c0-10.187-3.272-19.619-8.806-27.321l42.367-50.055
			l0.438,35.493l29.998-0.37L488.046,85.959z"/>
	</g>
</g>
<g>
</g>
<g>
</g>
<g>
</g>
<g>
</g>
<g>
</g>
<g>
</g>
<g>
</g>
<g>
</g>
<g>
</g>
<g>
</g>
<g>
</g>
<g>
</g>
<g>
</g>
<g>
</g>
<g>
</g>
</svg>
