<svg height="512pt" viewBox="0 0 512 512" width="512pt" xmlns="http://www.w3.org/2000/svg"><path d="m0 0v148h512v-148zm179.285156 40h36.714844v36.714844zm11.429688 68h-54.429688l-68-68h54.429688zm-150.714844-39.714844 39.714844 39.714844h-39.714844zm432 39.714844h-216v-68h216zm-472 404h512v-148h-512zm40-76.214844 36.214844 36.214844h-36.214844zm231 7.25v28.964844h-27.214844l-68-68h56.179688zm-83.785156 28.964844h-54.429688l-68-68h54.429688zm284.785156 0h-161v-68h161zm-472-142h512v-148h-512zm40-77.214844 37.214844 37.214844h-37.214844zm260.714844 37.214844h-55.929688l-68-68h55.929688zm-11.429688-68h59.714844v59.714844zm-101.070312 68h-54.429688l-68-68h54.429688zm283.785156 0h-83v-68h83zm0 0"/></svg>